Coordinates
version=1
nRows=12
nColumns=46
inDegrees=yes

Units are S.I. units (second, meters, Newtons, ...)
Angles are in degrees.

endheader
time	pelvis_tilt	pelvis_list	pelvis_rotation	pelvis_tx	pelvis_ty	pelvis_tz	bb_angle	bb_tx	bb_ty	bb_tz	hip_flexion_r	hip_adduction_r	hip_rotation_r	knee_angle_r	knee_angle_r_beta	ankle_angle_r	subtalar_angle_r	mtp_angle_r	crank_angle_r	hip_flexion_l	hip_adduction_l	hip_rotation_l	knee_angle_l	knee_angle_l_beta	ankle_angle_l	subtalar_angle_l	mtp_angle_l	crank_angle_l	lumbar_extension	lumbar_bending	lumbar_rotation	arm_flex_r	arm_add_r	arm_rot_r	elbow_flex_r	pro_sup_r	wrist_flex_r	wrist_dev_r	arm_flex_l	arm_add_l	arm_rot_l	elbow_flex_l	pro_sup_l	wrist_flex_l	wrist_dev_l
      5.00500000	    -28.01415678	      7.97760520	      2.61090143	      0.44436364	      1.18332135	     -0.21390892	      0.00000000	      0.50000000	      0.00000000	      0.25000000	     32.21244123	    -10.92446921	     -8.90499033	     28.07786475	      0.49005119	     -9.23647422	      1.62060503	      0.00000000	      0.00000000	     81.46353428	     -0.63964479	      1.33487117	    107.24546213	      1.87178642	    -13.83033451	     -1.85844931	      0.00000000	      0.00000000	    -62.76377088	     -5.32408441	     -7.32920578	     43.53576272	    -17.06761407	     17.38822820	     94.95458377	     57.00426766	      0.00000000	      0.00000000	     45.06991728	    -25.12799612	     17.66920759	    100.08051193	     54.99407991	      0.00000000	      0.00000000
      5.01000000	    -28.03185601	      7.77512464	      2.91570939	      0.44468622	      1.18461866	     -0.21414531	      0.00000000	      0.50000000	      0.00000000	      0.25000000	     31.97443838	    -11.01823493	     -9.49980787	     28.73636487	      0.50154418	     -9.96761940	      1.49868717	      0.00000000	      0.00000000	     82.00241847	     -0.38760009	      1.44372761	    106.78014263	      1.86366506	    -13.50596146	     -2.12124976	      0.00000000	      0.00000000	    -62.92083573	     -5.24660276	     -7.39915467	     43.52690540	    -17.11874852	     17.36581394	     94.80505009	     56.98370561	      0.00000000	      0.00000000	     45.42743939	    -25.16052622	     17.60847984	    100.13659907	     54.99224964	      0.00000000	      0.00000000
      5.01500000	    -28.09382788	      7.67341759	      3.44507577	      0.44502416	      1.18635755	     -0.21472625	      0.00000000	      0.50000000	      0.00000000	      0.25000000	     31.85476424	    -11.36451403	    -10.31317578	     29.55636852	      0.51585595	    -10.75059024	      1.19109314	      0.00000000	      0.00000000	     82.47837580	      0.25596674	      1.55045508	    106.06354630	      1.85115810	    -13.44038939	     -2.57583708	      0.00000000	      0.00000000	    -63.10618587	     -5.06241710	     -7.66482984	     43.65472059	    -17.24130003	     17.23946745	     94.49571481	     56.93759390	      0.00000000	      0.00000000	     45.88927153	    -25.22850215	     17.68187901	    100.12176594	     54.99739424	      0.00000000	      0.00000000
      5.02000000	    -27.94350416	      7.45688948	      3.66105336	      0.44575921	      1.18813362	     -0.21480827	      0.00000000	      0.50000000	      0.00000000	      0.25000000	     31.70057342	    -11.42049180	    -10.72590911	     30.64705086	      0.53489194	    -11.47616296	      0.92315142	      0.00000000	      0.00000000	     82.59510261	      0.61527280	      1.80244917	    105.39070015	      1.83941472	    -12.97980898	     -2.81858298	      0.00000000	      0.00000000	    -63.50604571	     -4.98025813	     -7.67407795	     43.69251077	    -17.33172433	     17.14308288	     94.34480044	     56.90855447	      0.00000000	      0.00000000	     46.20801244	    -25.29162203	     17.54211463	    100.18276391	     54.98732553	      0.00000000	      0.00000000
      5.02500000	    -27.91510799	      7.29459672	      4.00226736	      0.44662401	      1.18992213	     -0.21549147	      0.00000000	      0.50000000	      0.00000000	      0.25000000	     31.75607856	    -11.65537569	    -11.23620723	     31.89446475	      0.55666342	    -12.32760322	      0.33293463	      0.00000000	      0.00000000	     82.67892516	      1.25490277	      2.07134607	    104.53774863	      1.82452791	    -12.45527354	     -3.06257815	      0.00000000	      0.00000000	    -63.84237155	     -4.85080375	     -7.82135834	     43.82608666	    -17.53522316	     16.90239013	     94.17687297	     56.86748578	      0.00000000	      0.00000000	     46.53238459	    -25.30603772	     17.36450164	    100.31686125	     54.98580904	      0.00000000	      0.00000000
      5.03000000	    -27.89617999	      7.09606156	      4.25840749	      0.44714217	      1.19164270	     -0.21606900	      0.00000000	      0.50000000	      0.00000000	      0.25000000	     32.04671827	    -11.82357175	    -11.47838359	     33.43611462	      0.58357029	    -13.25380423	     -0.20999726	      0.00000000	      0.00000000	     82.68127510	      1.73479237	      2.30156088	    103.58677871	      1.80793035	    -11.88685892	     -3.37976410	      0.00000000	      0.00000000	    -64.13529326	     -4.66596695	     -7.89219987	     43.96160688	    -17.68805975	     16.68513605	     94.08002138	     56.84269679	      0.00000000	      0.00000000	     46.93503102	    -25.49035223	     17.25427130	    100.38989233	     54.98334301	      0.00000000	      0.00000000
      5.03500000	    -27.89830910	      6.84486188	      4.54548724	      0.44746486	      1.19339041	     -0.21657445	      0.00000000	      0.50000000	      0.00000000	      0.25000000	     32.47018612	    -11.93912852	    -11.68514051	     35.13892995	      0.61329002	    -14.20800187	     -0.95876342	      0.00000000	      0.00000000	     82.59805317	      2.16180801	      2.53725256	    102.48552748	      1.78870989	    -11.32015958	     -3.74543919	      0.00000000	      0.00000000	    -64.46557357	     -4.44774599	     -7.92219040	     44.08628910	    -17.88093428	     16.43925980	     94.06318828	     56.83007594	      0.00000000	      0.00000000	     47.19172957	    -25.57688454	     17.09923456	    100.56152769	     54.99291526	      0.00000000	      0.00000000
      5.04000000	    -27.97985589	      6.67897891	      4.95979658	      0.44732298	      1.19507192	     -0.21722310	      0.00000000	      0.50000000	      0.00000000	      0.25000000	     33.14867820	    -12.20783651	    -11.75023388	     37.06719396	      0.64694458	    -15.30151975	     -1.81097971	      0.00000000	      0.00000000	     82.49438253	      2.65996419	      2.61438899	    101.20486643	      1.76635814	    -10.84810169	     -4.12258374	      0.00000000	      0.00000000	    -64.75803456	     -4.18889105	     -8.06167350	     44.19488046	    -18.12159828	     16.14516612	     94.16922647	     56.83094144	      0.00000000	      0.00000000	     47.30603778	    -25.51066920	     16.82115280	    100.88328168	     55.01031120	      0.00000000	      0.00000000
      5.04500000	    -28.11026305	      6.32061315	      5.27302196	      0.44716685	      1.19652193	     -0.21788065	      0.00000000	      0.50000000	      0.00000000	      0.25000000	     33.98046357	    -12.20145796	    -11.62448752	     39.07469303	      0.68198205	    -16.49226615	     -2.73555597	      0.00000000	      0.00000000	     82.35315522	      3.02334811	      2.89298631	     99.86634950	      1.74299661	    -10.26477189	     -4.58248081	      0.00000000	      0.00000000	    -64.97895784	     -3.83962915	     -8.00199752	     44.36239518	    -18.32096470	     15.90301181	     94.34688699	     56.84742663	      0.00000000	      0.00000000	     47.42808969	    -25.55846440	     16.62132251	    101.23237457	     55.04034757	      0.00000000	      0.00000000
      5.05000000	    -28.38520004	      6.00382960	      5.52284560	      0.44681164	      1.19757765	     -0.21853179	      0.00000000	      0.50000000	      0.00000000	      0.25000000	     35.12036706	    -12.19000067	    -11.30931818	     41.20692791	      0.71919657	    -17.89638513	     -3.88664120	      0.00000000	      0.00000000	     82.24504145	      3.30368219	      3.09217531	     98.40701150	      1.71752636	     -9.77860496	     -5.06004243	      0.00000000	      0.00000000	    -65.07715710	     -3.54167238	     -7.97666574	     44.36044280	    -18.61781408	     15.69957416	     94.81665746	     56.94494210	      0.00000000	      0.00000000	     47.39128329	    -25.71251882	     16.47973031	    101.89501294	     55.12698775	      0.00000000	      0.00000000
      5.05500000	    -28.47198202	      5.57012973	      5.86036761	      0.44651949	      1.19885484	     -0.21927242	      0.00000000	      0.50000000	      0.00000000	      0.25000000	     36.04518202	    -12.11253115	    -11.13050471	     43.35275915	      0.75664839	    -19.09305844	     -4.70428102	      0.00000000	      0.00000000	     81.85184254	      3.62656137	      3.47793081	     96.85061148	      1.69036205	     -9.14519074	     -5.26792049	      0.00000000	      0.00000000	    -65.33187441	     -3.05614323	     -7.84151352	     44.65393135	    -18.83849601	     15.51392232	     94.99148800	     56.96525381	      0.00000000	      0.00000000	     47.54859570	    -25.76705200	     16.46638824	    102.27617641	     55.18133195	      0.00000000	      0.00000000
      5.06000000	    -28.62718848	      5.12514115	      6.11597322	      0.44616180	      1.19994083	     -0.21998006	      0.00000000	      0.50000000	      0.00000000	      0.25000000	     37.10837601	    -11.95716728	    -10.80650072	     45.49974116	      0.79412029	    -20.37480905	     -5.55145067	      0.00000000	      0.00000000	     81.39220364	      3.86592586	      3.88021022	     95.16580262	      1.66095659	     -8.51772920	     -5.46631800	      0.00000000	      0.00000000	    -65.52198523	     -2.63142457	     -7.66190333	     44.87986129	    -19.07893486	     15.43550216	     95.23842383	     57.01000631	      0.00000000	      0.00000000	     47.64570007	    -25.88582563	     16.53697603	    102.76365554	     55.26261489	      0.00000000	      0.00000000
